<?xml version="1.0" encoding="UTF-8" standalone="no"?>
<!-- Generator: Adobe Illustrator 16.0.0, SVG Export Plug-In . SVG Version: 6.00 Build 0)  -->

<svg
   xmlns:dc="http://purl.org/dc/elements/1.1/"
   xmlns:cc="http://creativecommons.org/ns#"
   xmlns:rdf="http://www.w3.org/1999/02/22-rdf-syntax-ns#"
   xmlns:svg="http://www.w3.org/2000/svg"
   xmlns="http://www.w3.org/2000/svg"
   xmlns:sodipodi="http://sodipodi.sourceforge.net/DTD/sodipodi-0.dtd"
   xmlns:inkscape="http://www.inkscape.org/namespaces/inkscape"
   version="1.1"
   id="Capa_1"
   x="0px"
   y="0px"
   width="512px"
   height="512px"
   viewBox="0 0 533.334 533.334"
   style="enable-background:new 0 0 533.334 533.334;"
   xml:space="preserve"
   inkscape:version="0.91 r13725"
   sodipodi:docname="mozilla-firefox.svg"
   inkscape:export-filename="/home/dallasarivle/Pictures/iconFirefox.png"
   inkscape:export-xdpi="88.676888"
   inkscape:export-ydpi="88.676888"><metadata
     id="metadata4270"><rdf:RDF><cc:Work
         rdf:about=""><dc:format>image/svg+xml</dc:format><dc:type
           rdf:resource="http://purl.org/dc/dcmitype/StillImage" /></cc:Work></rdf:RDF></metadata><defs
     id="defs4268" /><sodipodi:namedview
     pagecolor="#ffffff"
     bordercolor="#666666"
     borderopacity="1"
     objecttolerance="10"
     gridtolerance="10"
     guidetolerance="10"
     inkscape:pageopacity="0"
     inkscape:pageshadow="2"
     inkscape:window-width="1366"
     inkscape:window-height="712"
     id="namedview4266"
     showgrid="false"
     inkscape:zoom="0.515625"
     inkscape:cx="133.12043"
     inkscape:cy="113.48428"
     inkscape:window-x="0"
     inkscape:window-y="28"
     inkscape:window-maximized="1"
     inkscape:current-layer="g4232" /><g
     id="g4232"><circle
       style="opacity:1;fill:#003380;fill-opacity:1;stroke:none;stroke-width:0.5;stroke-miterlimit:4;stroke-dasharray:none;stroke-opacity:1"
       id="path4353"
       cx="268.37131"
       cy="261.04797"
       r="260.41699" /><path
       d="m 533.57295,170.96885 -6.2014,44.60923 c 0,0 -8.86244,-82.58984 -19.72542,-113.46674 -16.64982,-47.311119 -24.05677,-46.931729 -24.10596,-46.861931 11.15107,31.782039 9.12744,48.856821 9.12744,48.856821 0,0 -19.75755,-60.392741 -71.99464,-79.60764 C 362.80562,3.2246291 331.4975,9.0415601 327.88085,10.141452 c -0.54907,-0.0045 -1.07907,-0.0056 -1.58298,-0.0056 0.42561,0.03715 0.84218,0.08669 1.26779,0.123837 -0.0191,0.01238 -0.0472,0.02477 -0.0422,0.03152 0.23388,0.320849 63.94126,12.48946 75.23988,29.900852 0,0 -27.06009,0 -53.9907,8.703444 -1.2176,0.390648 99.08386,14.050924 119.59023,126.459435 0,0 -10.9965,-25.72644 -24.5948,-30.09561 8.94273,30.51102 6.64707,88.40677 -1.86905,117.18184 -1.09614,3.70045 -2.21737,-15.99628 -18.99267,-24.4802 5.37528,43.18399 -0.32121,111.67338 -27.033,130.54041 -2.08185,1.46915 16.74518,-67.61127 3.78529,-40.9054 -74.60851,128.29447 -162.80429,59.20504 -202.45691,28.79646 20.31968,4.9602 58.89623,-0.77229 75.97165,-15.0191 0.0221,-0.0169 0.0402,-0.0315 0.0622,-0.0507 18.54296,-14.21979 29.5234,-24.60291 39.3846,-22.14645 9.86724,2.46998 16.43602,-8.63589 8.7721,-18.48876 -7.67295,-9.87201 -26.30224,-23.43998 -51.50734,-16.04695 -17.77507,5.2214 -39.80419,27.2789 -73.42706,4.94445 -25.80736,-17.15021 -28.23753,-31.39702 -28.4664,-41.26452 0.6364,-3.49782 1.43943,-6.76372 2.39203,-9.74818 2.9702,-9.30461 11.97819,-12.11232 16.98809,-14.32899 8.49907,1.63689 15.8207,4.61009 23.50971,9.0333 0.0994,-2.86962 0.1315,-6.67928 -0.009,-11.00004 0.73678,-1.64252 0.28106,-6.59711 -0.9004,-12.65383 -0.68057,-6.04434 -1.78775,-12.29807 -3.53032,-17.99567 0.006,-0.001 0.01,-0.006 0.0161,-0.008 0.0291,-0.0113 0.0562,-0.0236 0.0823,-0.0417 0.0412,-0.0259 0.0763,-0.0664 0.10841,-0.11145 0.006,-0.0113 0.0161,-0.0191 0.0231,-0.0304 0.0432,-0.072 0.0803,-0.15986 0.10339,-0.27356 0.53302,-2.70752 6.28572,-7.93003 13.44573,-13.54432 6.41622,-5.03114 13.95968,-10.37636 19.90211,-14.51362 5.25983,-3.66331 9.26394,-6.38095 10.11516,-7.09358 0.32221,-0.27356 0.70967,-0.59328 1.13126,-0.95916 0.0783,-0.0687 0.1566,-0.13622 0.2369,-0.20827 0.0492,-0.0428 0.0994,-0.0867 0.14956,-0.13172 2.82767,-2.52626 7.04961,-7.29847 7.93495,-17.34272 0.002,-0.0248 0.005,-0.0473 0.006,-0.072 0.0261,-0.29495 0.0482,-0.59441 0.0673,-0.8995 0.0151,-0.21165 0.0261,-0.42555 0.0382,-0.64282 0.007,-0.16662 0.0171,-0.33211 0.0231,-0.50098 0.0161,-0.39627 0.0261,-0.80043 0.0311,-1.21022 0,-0.0236 0.001,-0.045 0.002,-0.0687 0.012,-0.97268 -0.003,-1.98588 -0.0542,-3.04975 -0.0281,-0.59441 -0.0652,-1.13141 -0.15558,-1.61888 -0.004,-0.0259 -0.01,-0.054 -0.0151,-0.0799 -0.009,-0.0473 -0.0191,-0.0957 -0.0301,-0.14297 -0.0191,-0.0856 -0.0401,-0.17112 -0.0632,-0.25218 -0.003,-0.0101 -0.006,-0.0191 -0.009,-0.027 -0.0271,-0.0934 -0.0582,-0.18463 -0.0903,-0.27244 -0.002,-0.003 -0.002,-0.006 -0.003,-0.009 -0.91646,-2.40805 -4.34941,-3.31769 -18.52892,-3.58788 -0.013,-0.001 -0.0261,-0.001 -0.0392,-0.001 l 0,0 c -5.78582,-0.11032 -13.35137,-0.11483 -23.26678,-0.0698 -17.38259,0.0788 -26.99084,-19.05841 -30.05741,-26.4627 4.20386,-26.068679 16.35169,-44.645258 36.30799,-57.242794 0.37743,-0.238666 0.30315,-0.435679 -0.14254,-0.573024 3.90173,-2.647847 -47.18102,-0.07205 -70.67667,33.443697 C 132.18044,68.215076 114.00486,68.606849 98.340763,72.729474 95.332411,72.634904 91.584267,72.213865 87.134485,71.174765 76.716171,60.587882 61.802904,41.035247 61.003889,17.69547 c 0,0 -0.04818,0.04278 -0.131496,0.119333 -0.01104,-0.224031 -0.03011,-0.44581 -0.03814,-0.669842 0,0 -31.742774,27.361081 -26.991848,101.954469 -0.01205,1.19446 -0.03413,2.33713 -0.06224,3.44491 -8.590413,13.06811 -12.853499,24.05239 -13.170695,26.47733 -7.609713,17.38212 -15.333856,43.53974 -21.6195737,83.25068 0,0 4.3955861,-15.6349 13.2188767,-33.3435 -6.488481,22.29392 -11.58772138,56.9681 -8.5934242,108.97599 0,0 0.7919887,-11.53141 3.5935596,-28.14125 2.1892594,32.256 11.7734216,72.07727 35.9998286,118.9043 46.502461,89.89844 117.982162,135.29347 196.989272,142.25645 14.02993,1.2969 28.25661,1.3273 42.56862,0.10807 1.31596,-0.10357 2.63092,-0.21164 3.94589,-0.33661 16.18707,-1.27438 32.48356,-4.0168 48.74591,-8.42199 222.28372,-60.27566 198.11452,-361.30496 198.11452,-361.30496 z"
       id="path4234"
       inkscape:connector-curvature="0"
       style="fill:#ffae00" /></g><g
     id="g4236" /><g
     id="g4238" /><g
     id="g4240" /><g
     id="g4242" /><g
     id="g4244" /><g
     id="g4246" /><g
     id="g4248" /><g
     id="g4250" /><g
     id="g4252" /><g
     id="g4254" /><g
     id="g4256" /><g
     id="g4258" /><g
     id="g4260" /><g
     id="g4262" /><g
     id="g4264" /></svg>